<svg width="46" height="47" viewBox="0 0 46 47" fill="none" xmlns="http://www.w3.org/2000/svg">
<circle cx="22.9777" cy="23.2111" r="22.9777" fill="#EDF0F3"/>
<circle cx="22.9777" cy="23.2111" r="22.9777" fill="url(#paint0_linear_43_73)" fill-opacity="0.3"/>
<path d="M17.2328 23.7854C16.9155 23.7854 16.6583 23.5282 16.6583 23.2109C16.6583 22.8937 16.9155 22.6365 17.2328 22.6365V23.7854ZM29.1278 22.8047C29.3522 23.0291 29.3522 23.3928 29.1278 23.6171L25.4721 27.2729C25.2478 27.4972 24.884 27.4972 24.6597 27.2729C24.4354 27.0485 24.4354 26.6848 24.6597 26.4605L27.9092 23.2109L24.6597 19.9614C24.4354 19.7371 24.4354 19.3734 24.6597 19.149C24.884 18.9247 25.2478 18.9247 25.4721 19.149L29.1278 22.8047ZM17.2328 22.6365H28.7216V23.7854H17.2328V22.6365Z" fill="#B5B5B5"/>
<defs>
<linearGradient id="paint0_linear_43_73" x1="1.47922e-06" y1="17.0837" x2="18.7093" y2="-0.183348" gradientUnits="userSpaceOnUse">
<stop stop-color="white" stop-opacity="0"/>
<stop offset="0.51774" stop-color="white"/>
<stop offset="1" stop-color="white" stop-opacity="0"/>
</linearGradient>
</defs>
</svg>
