<svg width="1173" height="662" viewBox="0 0 1173 662" fill="none" xmlns="http://www.w3.org/2000/svg">
<path d="M586 991C694.507 991 798.824 949.105 877.19 874.055C955.556 799.004 1001.92 696.594 1006.61 588.188C1011.29 479.782 973.946 373.753 902.351 292.217C830.756 210.682 730.445 159.938 622.342 150.572C514.24 141.205 406.696 173.938 322.144 241.944C237.592 309.949 182.562 407.975 168.533 515.571C154.505 623.168 182.562 732.026 246.851 819.437C311.14 906.848 406.696 966.062 513.586 984.726L547.211 792.15C489.955 782.153 438.77 750.435 404.333 703.612C369.896 656.79 354.867 598.48 362.381 540.845C369.896 483.21 399.373 430.702 444.664 394.275C489.955 357.847 547.561 340.313 605.467 345.331C663.373 350.348 717.105 377.529 755.455 421.204C793.805 464.879 813.812 521.674 811.301 579.743C808.79 637.811 783.955 692.667 741.978 732.869C700.001 773.07 644.123 795.511 586 795.511L586 991Z" fill="white" fill-opacity="0.86"/>
<path d="M586.5 1158C737.663 1158 882.988 1099.59 992.161 994.943C1101.33 890.3 1165.92 747.51 1172.45 596.36C1178.98 445.21 1126.95 297.372 1027.21 183.688C927.472 70.0033 787.728 -0.748671 637.129 -13.8088C486.531 -26.8689 336.709 18.7714 218.919 113.591C101.128 208.411 24.4652 345.088 4.92219 495.11C-14.6208 645.132 24.4654 796.912 114.027 918.79C203.589 1040.67 336.71 1123.23 485.62 1149.25L514.095 986.031C407.217 967.353 311.672 908.096 247.39 820.621C183.109 733.145 155.055 624.207 169.082 516.531C183.108 408.855 238.132 310.758 322.674 242.702C407.217 174.647 514.749 141.889 622.838 151.263C730.928 160.636 831.227 211.418 902.814 293.013C974.4 374.608 1011.75 480.716 1007.06 589.202C1002.37 697.687 956.013 800.173 877.657 875.278C799.3 950.384 694.995 992.31 586.5 992.31V1158Z" fill="white" fill-opacity="0.6"/>
</svg>
