<svg width="15" height="17" viewBox="0 0 15 17" fill="none" xmlns="http://www.w3.org/2000/svg">
<g filter="url(#filter0_i_25_72)">
<path d="M6.94446 8.06152C8.01898 8.024 8.93597 7.60613 9.66965 6.81922C10.4033 6.03243 10.7562 5.08878 10.7187 4.01414C10.6812 2.93987 10.2633 2.02301 9.47641 1.28908C8.68951 0.555517 7.74572 0.202621 6.67133 0.24014C5.59669 0.277667 4.67994 0.695534 3.94625 1.48232C3.21256 2.2691 2.85954 3.21289 2.89706 4.28728C2.93459 5.36192 3.35258 6.27877 4.13949 7.01246C4.9264 7.74602 5.87019 8.09904 6.94446 8.06152Z" fill="white"/>
<path d="M13.9497 12.4839C13.9167 12.1683 13.8603 11.8247 13.7823 11.4625C13.7035 11.0976 13.6066 10.7535 13.4939 10.4398C13.3775 10.1156 13.2235 9.79673 13.0363 9.49258C12.8419 9.17689 12.6171 8.90394 12.3677 8.68158C12.1069 8.44896 11.7912 8.26563 11.429 8.13651C11.0681 8.0081 10.671 7.95052 10.249 7.96526C10.0832 7.97105 9.92529 8.04465 9.62276 8.25701C9.43658 8.38792 9.21874 8.5394 8.97554 8.70702C8.76757 8.84997 8.48387 8.987 8.13198 9.11439C7.78867 9.23887 7.43811 9.30817 7.09013 9.32032C6.74216 9.33247 6.38774 9.2878 6.03621 9.18758C5.67667 9.08516 5.3841 8.96825 5.16691 8.84014C4.91502 8.6913 4.68702 8.55539 4.48925 8.43616C4.17301 8.24541 4.01021 8.183 3.84447 8.18879C3.42229 8.20353 3.03036 8.28878 2.67938 8.44218C2.3273 8.59599 2.025 8.8009 1.78085 9.05141C1.54773 9.29074 1.34234 9.57859 1.17074 9.90693C1.0053 10.2234 0.873892 10.5521 0.780303 10.8839C0.689925 11.2047 0.617185 11.5546 0.564104 11.9241C0.51153 12.2903 0.479238 12.6371 0.468386 12.955C0.45768 13.2665 0.45804 13.5893 0.469412 13.915C0.49901 14.7625 0.792406 15.4393 1.34139 15.9268C1.88358 16.4078 2.58676 16.6369 3.43111 16.6074L11.2493 16.3344C12.0937 16.3049 12.7789 16.0275 13.2863 15.5097C13.8001 14.9854 14.0456 14.2897 14.016 13.4418C14.0044 13.1146 13.9821 12.7923 13.9497 12.4839Z" fill="white"/>
</g>
<defs>
<filter id="filter0_i_25_72" x="0.460571" y="0.237549" width="13.5577" height="16.3723" filterUnits="userSpaceOnUse" color-interpolation-filters="sRGB">
<feFlood flood-opacity="0" result="BackgroundImageFix"/>
<feBlend mode="normal" in="SourceGraphic" in2="BackgroundImageFix" result="shape"/>
<feColorMatrix in="SourceAlpha" type="matrix" values="0 0 0 0 0 0 0 0 0 0 0 0 0 0 0 0 0 0 127 0" result="hardAlpha"/>
<feOffset/>
<feGaussianBlur stdDeviation="1"/>
<feComposite in2="hardAlpha" operator="arithmetic" k2="-1" k3="1"/>
<feColorMatrix type="matrix" values="0 0 0 0 0 0 0 0 0 0 0 0 0 0 0 0 0 0 0.25 0"/>
<feBlend mode="normal" in2="shape" result="effect1_innerShadow_25_72"/>
</filter>
</defs>
</svg>
