<svg width="18" height="18" viewBox="0 0 18 18" fill="none" xmlns="http://www.w3.org/2000/svg">
<g clip-path="url(#clip0_28_10)">
<path fill-rule="evenodd" clip-rule="evenodd" d="M7.93661 4.9154C8.0828 5.84097 8.71587 6.65644 9.71992 6.57171C9.7308 6.05014 9.5417 5.55144 9.27358 5.26167C8.9588 4.92149 8.55759 4.85459 7.93661 4.9154ZM4.86328 8.81588C4.83176 8.90396 4.74349 9.16076 4.68555 9.21092C4.68373 9.2695 4.67453 9.30016 4.64084 9.35117L6.71087 9.28004L6.66593 9.10893L6.53294 8.75001C6.47392 8.62845 6.41689 8.48763 6.35369 8.35106C6.29183 8.21741 6.20385 8.09598 6.15058 7.97556C6.09447 7.94242 6.05126 7.86466 6.0386 7.81781C5.93115 7.76943 5.80567 7.55799 5.6004 7.59718C5.34328 7.64626 4.96916 8.64346 4.86328 8.81588ZM2.94285 7.67986C2.98722 7.72737 3.06885 8.01998 3.10295 8.1075C3.16216 8.2595 3.22803 8.35229 3.29617 8.48723C3.29891 8.48969 3.31393 8.5008 3.32963 8.52141C3.36947 8.5737 3.34864 8.53921 3.35996 8.57647C3.49583 8.64274 3.5163 8.7384 3.74644 8.66992C4.12236 8.55598 4.34221 8.33007 4.52176 8.11365C4.629 7.98439 4.70271 7.86767 4.79213 7.71703C4.83596 7.6432 4.9832 7.31784 5.01213 7.28799C5.04285 7.18045 5.13315 7.04176 5.0173 6.95937C4.92204 6.89164 3.92092 6.96524 3.76825 6.9703C3.61998 6.97522 3.01432 6.9799 2.91536 7.01291C2.72008 7.07805 2.94604 7.50447 2.94285 7.67986ZM3.61232 4.6123L3.50162 4.75948C3.20766 5.10868 3.05216 5.50477 2.84088 5.90452C2.76408 6.04984 2.77963 6.23073 2.86209 6.33049C3.05494 6.56381 3.90319 6.44648 4.26634 6.43295C4.4687 6.42541 5.13951 6.45749 5.20677 6.28698C5.27629 6.11078 4.76287 5.00602 4.62314 4.76998C4.30514 4.23283 4.22225 4.37637 4.02293 4.34366C4.00271 4.35931 4.02043 4.34858 3.98204 4.36949C3.90777 4.40996 3.90376 4.39439 3.8031 4.46504C3.71964 4.52362 3.69321 4.57345 3.61232 4.6123ZM13.9483 2.64375C13.8781 2.69788 13.6281 2.73389 13.5225 2.76938C13.3736 2.81942 13.2518 2.89129 13.1239 2.93153C13.0804 2.97889 12.8858 3.07801 12.7527 3.20299C12.5217 3.41975 12.5835 3.39103 12.4857 3.49186L12.4585 3.51536C12.4572 3.51251 12.4524 3.52003 12.4493 3.52216C12.4122 3.62253 12.3394 3.71843 12.2868 3.82606C12.2385 3.92485 12.1987 4.03142 12.1673 4.13981C12.0971 4.38275 12.0603 4.65582 12.0655 4.92986L12.0937 5.28384C12.1791 5.26516 12.295 5.25393 12.3787 5.26952L12.8556 5.16986C12.9219 5.13879 13.0853 5.08401 13.1538 5.08632C13.1749 5.06757 13.1498 5.08434 13.1924 5.05834L13.5964 4.857C14.2639 4.4758 14.4233 3.84924 14.4819 3.78695L14.5543 3.47268C14.5864 3.15018 14.6118 2.93116 14.5808 2.58838L14.2733 2.60906L13.9483 2.64375ZM9.86043 7.91098C9.8583 7.98694 9.75377 8.19533 9.71461 8.24368C9.68884 8.31386 9.57625 8.53401 9.51723 8.5951C9.51453 8.59788 9.50919 8.60264 9.50499 8.60618L9.49595 8.62833C9.42317 8.82359 9.23577 9.01271 9.14146 9.18678L11.2011 9.11125C11.2162 9.04621 11.234 8.94876 11.2757 8.90204C11.272 8.80853 11.4398 8.2831 11.4802 8.15038C11.5522 7.91372 11.6407 7.64828 11.6805 7.39176C11.7016 7.24779 11.7528 6.44914 11.7776 6.40763L11.7701 6.2442C11.773 5.84492 11.7584 5.47278 11.7202 5.07746C11.6658 4.78375 11.6388 4.51499 11.5672 4.22557C11.4725 3.84297 11.2613 3.65971 11.2221 3.56891L11.1549 3.53201C10.7826 3.26557 10.4898 3.58997 10.2803 3.90706C10.1177 4.15311 10.1365 4.20499 10.1578 4.55954C10.2097 5.42589 10.3732 5.5874 10.2193 6.73699C10.1843 6.99845 9.99443 7.77826 9.86043 7.91098ZM13.2944 7.71767C13.3309 7.62413 13.4028 7.56977 13.4782 7.50644C13.5585 7.43894 13.6018 7.39154 13.705 7.34917C13.7899 7.24426 14.1927 7.15369 14.369 7.14474C14.6479 7.13057 14.8545 7.18139 15.1035 7.23477C15.1579 7.52263 15.1814 7.74162 15.0313 7.96731C14.9279 8.12285 14.7331 8.25956 14.5172 8.34138C14.0898 8.50333 13.3918 8.58137 12.9083 8.52742C12.9408 8.33513 13.1559 7.80486 13.2944 7.71767ZM15.1418 5.73681C15.0201 5.76222 14.9053 5.77707 14.7851 5.81124C14.6748 5.8426 14.5533 5.90383 14.4534 5.90845L14.0224 6.13162L13.542 6.47327C13.3839 6.60312 13.252 6.72835 13.1214 6.86048C12.9899 6.99352 12.8711 7.13764 12.7506 7.29378C12.6868 7.37646 12.6358 7.43745 12.576 7.52058C12.5363 7.57584 12.4696 7.71505 12.414 7.74101C12.372 7.84338 12.2853 7.96473 12.225 8.06485C12.1569 8.17812 12.1046 8.27303 12.0399 8.39313C11.9698 8.52343 11.7543 8.94348 11.7259 9.09147L16.9045 8.89746C16.9174 8.8729 16.9365 8.84788 16.9613 8.81567C16.9738 8.79935 16.983 8.78589 16.9956 8.77381C17.0391 8.73198 17.0032 8.75889 17.0343 8.74689C17.0572 8.69032 17.0336 8.73646 17.0718 8.67702C17.0857 8.65536 17.0964 8.64301 17.1123 8.62211L17.3332 8.27182C17.3775 8.18574 17.4146 8.10534 17.4497 8.00854C17.4818 7.92015 17.4958 7.802 17.5384 7.72278L17.5114 7.00138C17.4726 6.93529 17.4389 6.79543 17.4002 6.71435C17.2075 6.31036 16.9938 6.188 16.9044 6.04344C16.8596 6.03035 16.7636 5.97226 16.7153 5.93012C16.5714 5.90188 16.4287 5.83733 16.2667 5.8022L15.8526 5.72539C15.7811 5.70614 15.8347 5.72346 15.806 5.70787C15.7288 5.72973 15.629 5.71158 15.5414 5.71161L15.1418 5.73681ZM1.63133 3.40355C1.62311 3.45163 1.58344 3.48577 1.53694 3.52532C1.51307 3.54562 1.52699 3.53635 1.50781 3.5468C1.48939 3.59298 1.32227 3.81962 1.26532 3.86014C1.25473 3.90139 1.25 3.91494 1.21529 3.93396C1.14441 4.09366 0.938197 4.36341 0.807177 4.66329L0.743789 4.76427C0.741393 4.83999 0.649249 5.03552 0.614344 5.13402C0.567933 5.26493 0.540839 5.39836 0.501927 5.52283C0.480938 5.63984 0.458491 5.91877 0.405374 5.9987C0.421536 6.08786 0.401675 6.19983 0.395134 6.29083L0.405263 6.88418L0.402758 6.98695L0.485418 7.4575C0.513165 7.54145 0.546283 7.66334 0.544543 7.75415C0.588377 7.79719 0.676155 8.13108 0.706637 8.21715C0.908146 8.78612 1.07936 9.00858 1.36212 9.47987L3.09628 9.40753C3.05191 9.37056 3.04656 9.35343 3.03775 9.30265C2.97977 9.26543 3.0094 9.29829 2.98958 9.23376C2.93309 9.18983 2.82523 9.00132 2.81368 8.92263C2.73012 8.85481 2.62799 8.61717 2.58879 8.49766C2.5398 8.44978 2.32099 7.87827 2.32567 7.77524C2.30887 7.75382 2.32076 7.77533 2.30171 7.73434L2.2619 7.59584C2.17067 7.21318 2.0859 6.593 2.16768 6.24184C2.17896 6.10373 2.19239 5.85772 2.27221 5.76226C2.26239 5.63247 2.44469 5.23071 2.50261 5.10928C2.64561 4.80949 2.83511 4.53532 3.03243 4.28673C3.23539 4.03105 3.43633 3.82522 3.66322 3.59459C3.78424 3.47158 3.94094 3.23753 4.22126 3.253C4.45239 3.26575 4.60966 3.48542 4.70823 3.66005C4.78162 3.79007 5.2553 4.83755 5.25944 4.91225L5.45926 5.33092L6.14392 6.86139C6.19529 6.91509 6.27955 7.12048 6.28212 7.18724C6.32642 7.22979 6.35031 7.3045 6.38589 7.37924C6.41704 7.44471 6.44772 7.51529 6.47692 7.58084C6.53278 7.7062 6.61208 7.85656 6.64999 7.98746C6.70043 8.03872 6.78084 8.21953 6.78408 8.30309C6.85305 8.36024 7.12706 9.01121 7.16446 9.12849L7.22087 9.2603L8.77845 9.20115L8.55277 8.65405C8.5155 8.61256 8.29447 8.08082 8.25099 7.98015C7.79236 6.91823 6.10565 2.91435 5.83687 2.4822C5.71509 2.28636 5.53341 2.06684 5.38253 1.95471C4.98982 1.66288 4.48751 1.48792 3.86333 1.70703C3.39509 1.8714 2.50375 2.57181 2.1209 2.92166C2.04647 2.98968 1.68849 3.37287 1.63133 3.40355ZM0.358156 10.2109C0.393758 10.2903 0.479184 10.8072 0.518944 10.9542C0.554465 11.0856 0.728514 11.5483 0.729467 11.6202C0.79386 11.6815 0.879725 11.9283 0.928741 12.0296C0.990799 12.1578 1.08236 12.3039 1.13191 12.4282C1.16341 12.4491 1.30108 12.6909 1.33811 12.7447C1.80138 13.417 2.25674 13.8814 2.91088 14.3611C3.00913 14.4331 3.13935 14.5035 3.21021 14.5714C3.27586 14.6027 3.26577 14.5874 3.30303 14.6426C3.35488 14.6498 3.34041 14.6477 3.39405 14.678C3.42646 14.6963 3.43746 14.7046 3.465 14.7215C3.51418 14.7516 3.5702 14.7796 3.60216 14.8052L3.87135 14.9413C3.89175 14.9512 3.90505 14.9572 3.92147 14.9687C3.946 14.986 3.9381 14.9811 3.95474 14.9999L3.9824 15.0082C4.04475 15.0254 4.72163 15.3139 4.99583 15.405C5.27605 15.498 6.02699 15.6825 6.08426 15.7047C6.04423 15.7502 5.97867 15.784 5.92693 15.8259C5.86846 15.8732 5.81715 15.9293 5.7735 15.9798C5.67569 16.093 5.62779 16.2139 5.59843 16.3914L5.60357 16.5815L12.8497 16.3112L12.8439 16.1201C12.7204 15.6413 12.4404 15.5969 12.3078 15.472L13.2223 15.1614C13.2621 15.1267 13.5012 15.0273 13.5682 15.0234C13.6058 14.9821 13.5986 14.9902 13.6545 14.9647C13.6936 14.9469 13.7264 14.9355 13.7623 14.9184C13.8358 14.8834 13.8928 14.8456 13.9735 14.8201L14.3516 14.6186L14.3785 14.6098C14.4198 14.5552 14.4745 14.5368 14.5543 14.4865C14.6172 14.4469 14.6706 14.411 14.736 14.3812C14.757 14.3484 15.0281 14.1669 15.0828 14.1261C15.1635 14.066 15.3647 13.8845 15.4346 13.8645C15.4643 13.7971 15.4733 13.8014 15.5324 13.7747C15.5571 13.71 15.6207 13.6816 15.6681 13.6324C15.7178 13.5807 15.7637 13.5265 15.8211 13.5039C15.8471 13.4572 15.8778 13.417 15.941 13.3628C15.9777 13.2956 16.0125 13.2866 16.0677 13.226C16.1029 13.1874 16.1339 13.1274 16.1822 13.1035C16.2097 13.0323 16.2234 13.0224 16.2879 12.9793C16.3022 12.9154 16.3592 12.8637 16.4062 12.7996C16.4511 12.7385 16.4788 12.6692 16.5344 12.639C16.5574 12.5855 16.5464 12.604 16.5784 12.583L17.0021 11.8339L17.3391 11.0063C17.3325 10.9449 17.475 10.4571 17.4993 10.3334C17.5282 10.1865 17.578 9.67138 17.6086 9.59695L17.6009 9.39181L0.351671 10.0377L0.358156 10.2109Z" fill="#FEFEFE"/>
</g>
<defs>
<clipPath id="clip0_28_10">
<rect width="17.2613" height="17.2613" fill="white" transform="translate(0 0.645996) rotate(-2.14456)"/>
</clipPath>
</defs>
</svg>
