<svg width="114" height="114" viewBox="0 0 114 114" fill="none" xmlns="http://www.w3.org/2000/svg">
<path d="M108.506 51.253C108.506 79.5593 85.5593 102.506 57.253 102.506C28.9468 102.506 6 79.5593 6 51.253C6 22.9468 28.9468 0 57.253 0C85.5593 0 108.506 22.9468 108.506 51.253ZM28.4518 51.253C28.4518 67.1595 41.3465 80.0542 57.253 80.0542C73.1595 80.0542 86.0542 67.1595 86.0542 51.253C86.0542 35.3465 73.1595 22.4518 57.253 22.4518C41.3465 22.4518 28.4518 35.3465 28.4518 51.253Z" fill="#F0F0F0"/>
<g filter="url(#filter0_d_18_13)">
<path d="M6 51.253C6 61.3899 9.00594 71.2992 14.6377 79.7277C20.2694 88.1562 28.2741 94.7254 37.6393 98.6046C47.0046 102.484 57.3099 103.499 67.252 101.521C77.1941 99.5436 86.3265 94.6622 93.4944 87.4944C100.662 80.3265 105.544 71.1941 107.521 61.252C109.499 51.3099 108.484 41.0046 104.605 31.6393C100.725 22.2741 94.1562 14.2694 85.7277 8.63769C77.2992 3.00594 67.3899 7.65314e-07 57.253 0V22.4518C62.9494 22.4518 68.5178 24.141 73.2541 27.3057C77.9905 30.4704 81.682 34.9685 83.8619 40.2313C86.0418 45.494 86.6121 51.285 85.5008 56.8719C84.3895 62.4588 81.6465 67.5906 77.6186 71.6186C73.5906 75.6465 68.4587 78.3895 62.8719 79.5008C57.285 80.6121 51.494 80.0418 46.2313 77.8619C40.9685 75.682 36.4704 71.9905 33.3057 67.2541C30.141 62.5178 28.4518 56.9494 28.4518 51.253H6Z" fill="#2BBABB"/>
<path d="M6 51.253C6 61.3899 9.00594 71.2992 14.6377 79.7277C20.2694 88.1562 28.2741 94.7254 37.6393 98.6046C47.0046 102.484 57.3099 103.499 67.252 101.521C77.1941 99.5436 86.3265 94.6622 93.4944 87.4944C100.662 80.3265 105.544 71.1941 107.521 61.252C109.499 51.3099 108.484 41.0046 104.605 31.6393C100.725 22.2741 94.1562 14.2694 85.7277 8.63769C77.2992 3.00594 67.3899 7.65314e-07 57.253 0V22.4518C62.9494 22.4518 68.5178 24.141 73.2541 27.3057C77.9905 30.4704 81.682 34.9685 83.8619 40.2313C86.0418 45.494 86.6121 51.285 85.5008 56.8719C84.3895 62.4588 81.6465 67.5906 77.6186 71.6186C73.5906 75.6465 68.4587 78.3895 62.8719 79.5008C57.285 80.6121 51.494 80.0418 46.2313 77.8619C40.9685 75.682 36.4704 71.9905 33.3057 67.2541C30.141 62.5178 28.4518 56.9494 28.4518 51.253H6Z" fill="url(#paint0_linear_18_13)" fill-opacity="0.4"/>
</g>
<path d="M57 0L57 22" stroke="white" stroke-width="1.31418"/>
<path d="M29 51L6 50.6353" stroke="white" stroke-width="1.31418"/>
<path d="M40.3398 56.7148C39.9163 55.5983 39.7046 54.2661 39.7046 52.7184C39.7046 51.1706 39.9163 49.8423 40.3398 48.7335C40.7711 47.6246 41.3755 46.7583 42.1533 46.1346C42.9387 45.5109 43.8127 45.0566 44.7752 44.7717C45.7377 44.4868 46.8158 44.3443 48.0093 44.3443H48.8179C50.0191 44.3443 51.0971 44.4868 52.052 44.7717C53.0145 45.0566 53.8846 45.5109 54.6624 46.1346C55.4478 46.7583 56.0523 47.6246 56.4758 48.7335C56.907 49.8423 57.1226 51.1706 57.1226 52.7184C57.1226 54.2661 56.907 55.5983 56.4758 56.7148C56.0523 57.8236 55.4478 58.6899 54.6624 59.3136C53.8846 59.9297 53.0145 60.3801 52.052 60.665C51.0971 60.9499 50.0191 61.0924 48.8179 61.0924H48.0093C46.8081 61.0924 45.7262 60.9499 44.7637 60.665C43.8088 60.3801 42.9387 59.9297 42.1533 59.3136C41.3755 58.6899 40.7711 57.8236 40.3398 56.7148ZM48.4136 47.6131C45.5106 47.6131 44.0591 49.3187 44.0591 52.7299C44.0591 56.1334 45.5106 57.8352 48.4136 57.8352C51.3166 57.8352 52.7681 56.1334 52.7681 52.7299C52.7681 49.3187 51.3166 47.6131 48.4136 47.6131ZM58.4162 56.4838C58.4162 56.0295 58.551 55.7022 58.8205 55.502C59.09 55.3018 59.3518 55.2017 59.6059 55.2017H60.9689C61.6773 55.2017 62.2317 55.6291 62.6321 56.4838C63.0557 57.3847 64.0028 57.8352 65.4735 57.8352H67.1253C68.0724 57.8352 68.7654 57.7004 69.2043 57.4309C69.6432 57.1614 69.8627 56.7032 69.8627 56.0564C69.8627 55.4096 69.6432 54.9514 69.2043 54.6819C68.7654 54.4124 68.0724 54.2777 67.1253 54.2777H65.0462C64.7459 54.2777 64.4879 54.1737 64.2723 53.9658C64.0567 53.7502 63.9489 53.4922 63.9489 53.1919V52.2448C63.9489 51.9599 64.0528 51.7096 64.2608 51.494C64.4687 51.2707 64.7151 51.159 65 51.159H66.6979C67.722 51.159 68.4651 51.0243 68.9271 50.7548C69.3968 50.4853 69.6317 50.0271 69.6317 49.3803C69.6317 48.7335 69.3968 48.2791 68.9271 48.0173C68.4651 47.7478 67.722 47.6131 66.6979 47.6131H65.8432C64.357 47.6131 63.3791 48.0866 62.9094 49.0338C62.5628 49.7576 62.0431 50.1195 61.35 50.1195H59.9755C59.8369 50.1195 59.6868 50.0926 59.5251 50.0387C59.3711 49.9848 59.2094 49.85 59.04 49.6344C58.8783 49.4188 58.7974 49.1531 58.7974 48.8374C58.7974 47.9519 59.1324 47.1588 59.8023 46.458C60.4722 45.7573 61.3077 45.2298 62.3087 44.8756C63.3098 44.5214 64.3532 44.3443 65.4389 44.3443H67.0329C71.6684 44.3443 73.9862 46.0307 73.9862 49.4034C73.9862 50.8048 73.4587 51.9098 72.4038 52.7184C73.6204 53.473 74.2249 54.5857 74.2172 56.0564C74.2172 57.8352 73.6474 59.1211 72.5077 59.9143C71.3758 60.6997 69.7164 61.0924 67.5295 61.0924H65.0693C63.3521 61.0924 61.8121 60.6689 60.4491 59.8219C59.0939 58.9671 58.4162 57.8544 58.4162 56.4838Z" fill="#2BBABB"/>
<path d="M40.3398 56.7148C39.9163 55.5983 39.7046 54.2661 39.7046 52.7184C39.7046 51.1706 39.9163 49.8423 40.3398 48.7335C40.7711 47.6246 41.3755 46.7583 42.1533 46.1346C42.9387 45.5109 43.8127 45.0566 44.7752 44.7717C45.7377 44.4868 46.8158 44.3443 48.0093 44.3443H48.8179C50.0191 44.3443 51.0971 44.4868 52.052 44.7717C53.0145 45.0566 53.8846 45.5109 54.6624 46.1346C55.4478 46.7583 56.0523 47.6246 56.4758 48.7335C56.907 49.8423 57.1226 51.1706 57.1226 52.7184C57.1226 54.2661 56.907 55.5983 56.4758 56.7148C56.0523 57.8236 55.4478 58.6899 54.6624 59.3136C53.8846 59.9297 53.0145 60.3801 52.052 60.665C51.0971 60.9499 50.0191 61.0924 48.8179 61.0924H48.0093C46.8081 61.0924 45.7262 60.9499 44.7637 60.665C43.8088 60.3801 42.9387 59.9297 42.1533 59.3136C41.3755 58.6899 40.7711 57.8236 40.3398 56.7148ZM48.4136 47.6131C45.5106 47.6131 44.0591 49.3187 44.0591 52.7299C44.0591 56.1334 45.5106 57.8352 48.4136 57.8352C51.3166 57.8352 52.7681 56.1334 52.7681 52.7299C52.7681 49.3187 51.3166 47.6131 48.4136 47.6131ZM58.4162 56.4838C58.4162 56.0295 58.551 55.7022 58.8205 55.502C59.09 55.3018 59.3518 55.2017 59.6059 55.2017H60.9689C61.6773 55.2017 62.2317 55.6291 62.6321 56.4838C63.0557 57.3847 64.0028 57.8352 65.4735 57.8352H67.1253C68.0724 57.8352 68.7654 57.7004 69.2043 57.4309C69.6432 57.1614 69.8627 56.7032 69.8627 56.0564C69.8627 55.4096 69.6432 54.9514 69.2043 54.6819C68.7654 54.4124 68.0724 54.2777 67.1253 54.2777H65.0462C64.7459 54.2777 64.4879 54.1737 64.2723 53.9658C64.0567 53.7502 63.9489 53.4922 63.9489 53.1919V52.2448C63.9489 51.9599 64.0528 51.7096 64.2608 51.494C64.4687 51.2707 64.7151 51.159 65 51.159H66.6979C67.722 51.159 68.4651 51.0243 68.9271 50.7548C69.3968 50.4853 69.6317 50.0271 69.6317 49.3803C69.6317 48.7335 69.3968 48.2791 68.9271 48.0173C68.4651 47.7478 67.722 47.6131 66.6979 47.6131H65.8432C64.357 47.6131 63.3791 48.0866 62.9094 49.0338C62.5628 49.7576 62.0431 50.1195 61.35 50.1195H59.9755C59.8369 50.1195 59.6868 50.0926 59.5251 50.0387C59.3711 49.9848 59.2094 49.85 59.04 49.6344C58.8783 49.4188 58.7974 49.1531 58.7974 48.8374C58.7974 47.9519 59.1324 47.1588 59.8023 46.458C60.4722 45.7573 61.3077 45.2298 62.3087 44.8756C63.3098 44.5214 64.3532 44.3443 65.4389 44.3443H67.0329C71.6684 44.3443 73.9862 46.0307 73.9862 49.4034C73.9862 50.8048 73.4587 51.9098 72.4038 52.7184C73.6204 53.473 74.2249 54.5857 74.2172 56.0564C74.2172 57.8352 73.6474 59.1211 72.5077 59.9143C71.3758 60.6997 69.7164 61.0924 67.5295 61.0924H65.0693C63.3521 61.0924 61.8121 60.6689 60.4491 59.8219C59.0939 58.9671 58.4162 57.8544 58.4162 56.4838Z" fill="url(#paint1_linear_18_13)" fill-opacity="0.4"/>
<defs>
<filter id="filter0_d_18_13" x="0.743279" y="0" width="113.019" height="113.02" filterUnits="userSpaceOnUse" color-interpolation-filters="sRGB">
<feFlood flood-opacity="0" result="BackgroundImageFix"/>
<feColorMatrix in="SourceAlpha" type="matrix" values="0 0 0 0 0 0 0 0 0 0 0 0 0 0 0 0 0 0 127 0" result="hardAlpha"/>
<feOffset dy="5.25672"/>
<feGaussianBlur stdDeviation="2.62836"/>
<feComposite in2="hardAlpha" operator="out"/>
<feColorMatrix type="matrix" values="0 0 0 0 0.28342 0 0 0 0 0.28342 0 0 0 0 0.28342 0 0 0 0.25 0"/>
<feBlend mode="normal" in2="BackgroundImageFix" result="effect1_dropShadow_18_13"/>
<feBlend mode="normal" in="SourceGraphic" in2="effect1_dropShadow_18_13" result="shape"/>
</filter>
<linearGradient id="paint0_linear_18_13" x1="57.253" y1="0" x2="57.253" y2="102.506" gradientUnits="userSpaceOnUse">
<stop stop-color="white"/>
<stop offset="1" stop-color="white" stop-opacity="0"/>
</linearGradient>
<linearGradient id="paint1_linear_18_13" x1="57" y1="38" x2="57" y2="66" gradientUnits="userSpaceOnUse">
<stop stop-color="white"/>
<stop offset="1" stop-color="white" stop-opacity="0"/>
</linearGradient>
</defs>
</svg>
