<svg width="108" height="103" viewBox="0 0 108 103" fill="none" xmlns="http://www.w3.org/2000/svg">
<path d="M102.506 51.253C102.506 79.5593 79.5593 102.506 51.253 102.506C22.9468 102.506 0 79.5593 0 51.253C0 22.9468 22.9468 0 51.253 0C79.5593 0 102.506 22.9468 102.506 51.253ZM22.4518 51.253C22.4518 67.1595 35.3465 80.0542 51.253 80.0542C67.1595 80.0542 80.0542 67.1595 80.0542 51.253C80.0542 35.3465 67.1595 22.4518 51.253 22.4518C35.3465 22.4518 22.4518 35.3465 22.4518 51.253Z" fill="#F0F0F0"/>
<g filter="url(#filter0_d_17_42)">
<path d="M102.506 51.253C102.506 44.5224 101.18 37.8576 98.6046 31.6393C96.0289 25.421 92.2537 19.7709 87.4944 15.0117C82.7351 10.2524 77.085 6.47711 70.8667 3.9014C64.6484 1.3257 57.9837 -2.94206e-07 51.253 0L51.253 22.4518C55.0353 22.4518 58.7804 23.1968 62.2748 24.6442C65.7691 26.0916 68.9441 28.213 71.6186 30.8875C74.293 33.5619 76.4145 36.7369 77.8619 40.2313C79.3093 43.7256 80.0542 47.4708 80.0542 51.253H102.506Z" fill="#2BBABB"/>
<path d="M102.506 51.253C102.506 44.5224 101.18 37.8576 98.6046 31.6393C96.0289 25.421 92.2537 19.7709 87.4944 15.0117C82.7351 10.2524 77.085 6.47711 70.8667 3.9014C64.6484 1.3257 57.9837 -2.94206e-07 51.253 0L51.253 22.4518C55.0353 22.4518 58.7804 23.1968 62.2748 24.6442C65.7691 26.0916 68.9441 28.213 71.6186 30.8875C74.293 33.5619 76.4145 36.7369 77.8619 40.2313C79.3093 43.7256 80.0542 47.4708 80.0542 51.253H102.506Z" fill="url(#paint0_linear_17_42)" fill-opacity="0.4"/>
</g>
<path d="M51 0L51 22" stroke="white" stroke-width="1.31418"/>
<path d="M103 51L80 50.6353" stroke="white" stroke-width="1.31418"/>
<path d="M37.3398 56.8261C36.9163 55.7096 36.7046 54.3774 36.7046 52.8297C36.7046 51.2819 36.9163 49.9536 37.3398 48.8448C37.7711 47.736 38.3755 46.8697 39.1533 46.2459C39.9387 45.6222 40.8127 45.1679 41.7752 44.883C42.7377 44.5981 43.8158 44.4556 45.0093 44.4556H45.8179C47.0191 44.4556 48.0971 44.5981 49.052 44.883C50.0145 45.1679 50.8846 45.6222 51.6624 46.2459C52.4478 46.8697 53.0523 47.736 53.4758 48.8448C53.907 49.9536 54.1226 51.2819 54.1226 52.8297C54.1226 54.3774 53.907 55.7096 53.4758 56.8261C53.0523 57.935 52.4478 58.8012 51.6624 59.425C50.8846 60.041 50.0145 60.4915 49.052 60.7764C48.0971 61.0613 47.0191 61.2037 45.8179 61.2037H45.0093C43.8081 61.2037 42.7262 61.0613 41.7637 60.7764C40.8088 60.4915 39.9387 60.041 39.1533 59.425C38.3755 58.8012 37.7711 57.935 37.3398 56.8261ZM45.4136 47.7244C42.5106 47.7244 41.0591 49.43 41.0591 52.8412C41.0591 56.2448 42.5106 57.9465 45.4136 57.9465C48.3166 57.9465 49.7681 56.2448 49.7681 52.8412C49.7681 49.43 48.3166 47.7244 45.4136 47.7244ZM54.8272 48.5791C54.5731 48.2326 54.6501 47.8823 55.0582 47.528L57.8765 45.1025C58.2846 44.7405 58.8544 44.5557 59.5859 44.548H61.2839C61.5996 44.548 61.8614 44.6558 62.0693 44.8714C62.2849 45.0871 62.3927 45.345 62.3927 45.6453V60.0256C62.3927 60.3259 62.281 60.5839 62.0577 60.7995C61.8421 61.0074 61.5842 61.1113 61.2839 61.1113H59.1355C58.8352 61.1113 58.5772 61.0112 58.3616 60.811C58.1537 60.6031 58.0497 60.349 58.0497 60.0487V48.8794L56.7214 49.8497C56.5674 49.9575 56.3903 49.9921 56.1901 49.9536C55.9899 49.9151 55.8282 49.8266 55.705 49.688L54.8272 48.5791Z" fill="#2BBABB"/>
<path d="M37.3398 56.8261C36.9163 55.7096 36.7046 54.3774 36.7046 52.8297C36.7046 51.2819 36.9163 49.9536 37.3398 48.8448C37.7711 47.736 38.3755 46.8697 39.1533 46.2459C39.9387 45.6222 40.8127 45.1679 41.7752 44.883C42.7377 44.5981 43.8158 44.4556 45.0093 44.4556H45.8179C47.0191 44.4556 48.0971 44.5981 49.052 44.883C50.0145 45.1679 50.8846 45.6222 51.6624 46.2459C52.4478 46.8697 53.0523 47.736 53.4758 48.8448C53.907 49.9536 54.1226 51.2819 54.1226 52.8297C54.1226 54.3774 53.907 55.7096 53.4758 56.8261C53.0523 57.935 52.4478 58.8012 51.6624 59.425C50.8846 60.041 50.0145 60.4915 49.052 60.7764C48.0971 61.0613 47.0191 61.2037 45.8179 61.2037H45.0093C43.8081 61.2037 42.7262 61.0613 41.7637 60.7764C40.8088 60.4915 39.9387 60.041 39.1533 59.425C38.3755 58.8012 37.7711 57.935 37.3398 56.8261ZM45.4136 47.7244C42.5106 47.7244 41.0591 49.43 41.0591 52.8412C41.0591 56.2448 42.5106 57.9465 45.4136 57.9465C48.3166 57.9465 49.7681 56.2448 49.7681 52.8412C49.7681 49.43 48.3166 47.7244 45.4136 47.7244ZM54.8272 48.5791C54.5731 48.2326 54.6501 47.8823 55.0582 47.528L57.8765 45.1025C58.2846 44.7405 58.8544 44.5557 59.5859 44.548H61.2839C61.5996 44.548 61.8614 44.6558 62.0693 44.8714C62.2849 45.0871 62.3927 45.345 62.3927 45.6453V60.0256C62.3927 60.3259 62.281 60.5839 62.0577 60.7995C61.8421 61.0074 61.5842 61.1113 61.2839 61.1113H59.1355C58.8352 61.1113 58.5772 61.0112 58.3616 60.811C58.1537 60.6031 58.0497 60.349 58.0497 60.0487V48.8794L56.7214 49.8497C56.5674 49.9575 56.3903 49.9921 56.1901 49.9536C55.9899 49.9151 55.8282 49.8266 55.705 49.688L54.8272 48.5791Z" fill="url(#paint1_linear_17_42)" fill-opacity="0.4"/>
<defs>
<filter id="filter0_d_17_42" x="45.9963" y="0" width="61.7665" height="61.7665" filterUnits="userSpaceOnUse" color-interpolation-filters="sRGB">
<feFlood flood-opacity="0" result="BackgroundImageFix"/>
<feColorMatrix in="SourceAlpha" type="matrix" values="0 0 0 0 0 0 0 0 0 0 0 0 0 0 0 0 0 0 127 0" result="hardAlpha"/>
<feOffset dy="5.25672"/>
<feGaussianBlur stdDeviation="2.62836"/>
<feComposite in2="hardAlpha" operator="out"/>
<feColorMatrix type="matrix" values="0 0 0 0 0.28342 0 0 0 0 0.28342 0 0 0 0 0.28342 0 0 0 0.25 0"/>
<feBlend mode="normal" in2="BackgroundImageFix" result="effect1_dropShadow_17_42"/>
<feBlend mode="normal" in="SourceGraphic" in2="effect1_dropShadow_17_42" result="shape"/>
</filter>
<linearGradient id="paint0_linear_17_42" x1="51.253" y1="0" x2="51.253" y2="102.506" gradientUnits="userSpaceOnUse">
<stop stop-color="white"/>
<stop offset="1" stop-color="white" stop-opacity="0"/>
</linearGradient>
<linearGradient id="paint1_linear_17_42" x1="50.5" y1="38.1113" x2="50.5" y2="66.1113" gradientUnits="userSpaceOnUse">
<stop stop-color="white"/>
<stop offset="1" stop-color="white" stop-opacity="0"/>
</linearGradient>
</defs>
</svg>
