<svg width="114" height="114" viewBox="0 0 114 114" fill="none" xmlns="http://www.w3.org/2000/svg">
<path d="M108.506 51.253C108.506 79.5593 85.5593 102.506 57.253 102.506C28.9468 102.506 6 79.5593 6 51.253C6 22.9468 28.9468 0 57.253 0C85.5593 0 108.506 22.9468 108.506 51.253ZM28.4518 51.253C28.4518 67.1595 41.3465 80.0542 57.253 80.0542C73.1595 80.0542 86.0542 67.1595 86.0542 51.253C86.0542 35.3465 73.1595 22.4518 57.253 22.4518C41.3465 22.4518 28.4518 35.3465 28.4518 51.253Z" fill="#F0F0F0"/>
<g filter="url(#filter0_d_18_21)">
<path d="M108.506 51.253C108.506 79.5593 85.5593 102.506 57.253 102.506C28.9468 102.506 6 79.5593 6 51.253C6 22.9468 28.9468 0 57.253 0C85.5593 0 108.506 22.9468 108.506 51.253ZM28.4518 51.253C28.4518 67.1595 41.3465 80.0542 57.253 80.0542C73.1595 80.0542 86.0542 67.1595 86.0542 51.253C86.0542 35.3465 73.1595 22.4518 57.253 22.4518C41.3465 22.4518 28.4518 35.3465 28.4518 51.253Z" fill="#2BBABB"/>
<path d="M108.506 51.253C108.506 79.5593 85.5593 102.506 57.253 102.506C28.9468 102.506 6 79.5593 6 51.253C6 22.9468 28.9468 0 57.253 0C85.5593 0 108.506 22.9468 108.506 51.253ZM28.4518 51.253C28.4518 67.1595 41.3465 80.0542 57.253 80.0542C73.1595 80.0542 86.0542 67.1595 86.0542 51.253C86.0542 35.3465 73.1595 22.4518 57.253 22.4518C41.3465 22.4518 28.4518 35.3465 28.4518 51.253Z" fill="url(#paint0_linear_18_21)" fill-opacity="0.4"/>
</g>
<path d="M57 0L57 22" stroke="white" stroke-width="1.31418"/>
<path d="M39.3398 56.8261C38.9163 55.7096 38.7046 54.3774 38.7046 52.8297C38.7046 51.2819 38.9163 49.9536 39.3398 48.8448C39.7711 47.736 40.3755 46.8697 41.1533 46.2459C41.9387 45.6222 42.8127 45.1679 43.7752 44.883C44.7377 44.5981 45.8158 44.4556 47.0093 44.4556H47.8179C49.0191 44.4556 50.0971 44.5981 51.052 44.883C52.0145 45.1679 52.8846 45.6222 53.6624 46.2459C54.4478 46.8697 55.0523 47.736 55.4758 48.8448C55.907 49.9536 56.1226 51.2819 56.1226 52.8297C56.1226 54.3774 55.907 55.7096 55.4758 56.8261C55.0523 57.935 54.4478 58.8012 53.6624 59.425C52.8846 60.041 52.0145 60.4915 51.052 60.7764C50.0971 61.0613 49.0191 61.2037 47.8179 61.2037H47.0093C45.8081 61.2037 44.7262 61.0613 43.7637 60.7764C42.8088 60.4915 41.9387 60.041 41.1533 59.425C40.3755 58.8012 39.7711 57.935 39.3398 56.8261ZM47.4136 47.7244C44.5106 47.7244 43.0591 49.43 43.0591 52.8412C43.0591 56.2448 44.5106 57.9465 47.4136 57.9465C50.3166 57.9465 51.7681 56.2448 51.7681 52.8412C51.7681 49.43 50.3166 47.7244 47.4136 47.7244ZM57.0582 57.1149V55.7404C57.0582 55.0628 57.2969 54.4621 57.7743 53.9385L65.4091 45.2642C65.8326 44.7944 66.4333 44.5557 67.211 44.548H70.8263C71.142 44.548 71.4076 44.6558 71.6233 44.8714C71.8389 45.0871 71.9467 45.345 71.9467 45.6453V54.9319H73.2172C73.5329 54.9319 73.7986 55.0397 74.0142 55.2553C74.2298 55.4709 74.3376 55.7288 74.3376 56.0291V57.1149C74.3376 57.4152 74.2259 57.6732 74.0026 57.8888C73.7793 58.0967 73.5175 58.2006 73.2172 58.2006H71.9467V60.0256C71.9467 60.3259 71.835 60.5839 71.6117 60.7995C71.3884 61.0074 71.1266 61.1113 70.8263 61.1113H68.6779C68.3776 61.1113 68.1196 61.0112 67.904 60.811C67.6961 60.6031 67.5922 60.349 67.5922 60.0487V58.2006H58.1786C57.8783 58.2006 57.6165 58.0967 57.3931 57.8888C57.1698 57.6732 57.0582 57.4152 57.0582 57.1149ZM61.7014 54.9319H67.5922V48.2442L61.7014 54.9319Z" fill="#2BBABB"/>
<path d="M39.3398 56.8261C38.9163 55.7096 38.7046 54.3774 38.7046 52.8297C38.7046 51.2819 38.9163 49.9536 39.3398 48.8448C39.7711 47.736 40.3755 46.8697 41.1533 46.2459C41.9387 45.6222 42.8127 45.1679 43.7752 44.883C44.7377 44.5981 45.8158 44.4556 47.0093 44.4556H47.8179C49.0191 44.4556 50.0971 44.5981 51.052 44.883C52.0145 45.1679 52.8846 45.6222 53.6624 46.2459C54.4478 46.8697 55.0523 47.736 55.4758 48.8448C55.907 49.9536 56.1226 51.2819 56.1226 52.8297C56.1226 54.3774 55.907 55.7096 55.4758 56.8261C55.0523 57.935 54.4478 58.8012 53.6624 59.425C52.8846 60.041 52.0145 60.4915 51.052 60.7764C50.0971 61.0613 49.0191 61.2037 47.8179 61.2037H47.0093C45.8081 61.2037 44.7262 61.0613 43.7637 60.7764C42.8088 60.4915 41.9387 60.041 41.1533 59.425C40.3755 58.8012 39.7711 57.935 39.3398 56.8261ZM47.4136 47.7244C44.5106 47.7244 43.0591 49.43 43.0591 52.8412C43.0591 56.2448 44.5106 57.9465 47.4136 57.9465C50.3166 57.9465 51.7681 56.2448 51.7681 52.8412C51.7681 49.43 50.3166 47.7244 47.4136 47.7244ZM57.0582 57.1149V55.7404C57.0582 55.0628 57.2969 54.4621 57.7743 53.9385L65.4091 45.2642C65.8326 44.7944 66.4333 44.5557 67.211 44.548H70.8263C71.142 44.548 71.4076 44.6558 71.6233 44.8714C71.8389 45.0871 71.9467 45.345 71.9467 45.6453V54.9319H73.2172C73.5329 54.9319 73.7986 55.0397 74.0142 55.2553C74.2298 55.4709 74.3376 55.7288 74.3376 56.0291V57.1149C74.3376 57.4152 74.2259 57.6732 74.0026 57.8888C73.7793 58.0967 73.5175 58.2006 73.2172 58.2006H71.9467V60.0256C71.9467 60.3259 71.835 60.5839 71.6117 60.7995C71.3884 61.0074 71.1266 61.1113 70.8263 61.1113H68.6779C68.3776 61.1113 68.1196 61.0112 67.904 60.811C67.6961 60.6031 67.5922 60.349 67.5922 60.0487V58.2006H58.1786C57.8783 58.2006 57.6165 58.0967 57.3931 57.8888C57.1698 57.6732 57.0582 57.4152 57.0582 57.1149ZM61.7014 54.9319H67.5922V48.2442L61.7014 54.9319Z" fill="url(#paint1_linear_18_21)" fill-opacity="0.4"/>
<defs>
<filter id="filter0_d_18_21" x="0.743279" y="0" width="113.02" height="113.02" filterUnits="userSpaceOnUse" color-interpolation-filters="sRGB">
<feFlood flood-opacity="0" result="BackgroundImageFix"/>
<feColorMatrix in="SourceAlpha" type="matrix" values="0 0 0 0 0 0 0 0 0 0 0 0 0 0 0 0 0 0 127 0" result="hardAlpha"/>
<feOffset dy="5.25672"/>
<feGaussianBlur stdDeviation="2.62836"/>
<feComposite in2="hardAlpha" operator="out"/>
<feColorMatrix type="matrix" values="0 0 0 0 0.28342 0 0 0 0 0.28342 0 0 0 0 0.28342 0 0 0 0.25 0"/>
<feBlend mode="normal" in2="BackgroundImageFix" result="effect1_dropShadow_18_21"/>
<feBlend mode="normal" in="SourceGraphic" in2="effect1_dropShadow_18_21" result="shape"/>
</filter>
<linearGradient id="paint0_linear_18_21" x1="57.253" y1="0" x2="57.253" y2="102.506" gradientUnits="userSpaceOnUse">
<stop stop-color="white"/>
<stop offset="1" stop-color="white" stop-opacity="0"/>
</linearGradient>
<linearGradient id="paint1_linear_18_21" x1="56.5" y1="38.1113" x2="56.5" y2="66.1113" gradientUnits="userSpaceOnUse">
<stop stop-color="white"/>
<stop offset="1" stop-color="white" stop-opacity="0"/>
</linearGradient>
</defs>
</svg>
