<svg width="108" height="114" viewBox="0 0 108 114" fill="none" xmlns="http://www.w3.org/2000/svg">
<path d="M102.506 51.253C102.506 79.5593 79.5593 102.506 51.253 102.506C22.9468 102.506 0 79.5593 0 51.253C0 22.9468 22.9468 0 51.253 0C79.5593 0 102.506 22.9468 102.506 51.253ZM22.4518 51.253C22.4518 67.1595 35.3465 80.0542 51.253 80.0542C67.1595 80.0542 80.0542 67.1595 80.0542 51.253C80.0542 35.3465 67.1595 22.4518 51.253 22.4518C35.3465 22.4518 22.4518 35.3465 22.4518 51.253Z" fill="#F0F0F0"/>
<g filter="url(#filter0_d_18_5)">
<path d="M51.253 102.506C64.8462 102.506 77.8826 97.1062 87.4944 87.4944C97.1062 77.8826 102.506 64.8462 102.506 51.253C102.506 37.6599 97.1062 24.6235 87.4944 15.0117C77.8826 5.39986 64.8462 2.64668e-06 51.253 0L51.253 22.4518C58.8916 22.4518 66.2173 25.4862 71.6186 30.8875C77.0198 36.2888 80.0542 43.6145 80.0542 51.253C80.0542 58.8916 77.0198 66.2173 71.6186 71.6186C66.2173 77.0198 58.8916 80.0542 51.253 80.0542L51.253 102.506Z" fill="#2BBABB"/>
<path d="M51.253 102.506C64.8462 102.506 77.8826 97.1062 87.4944 87.4944C97.1062 77.8826 102.506 64.8462 102.506 51.253C102.506 37.6599 97.1062 24.6235 87.4944 15.0117C77.8826 5.39986 64.8462 2.64668e-06 51.253 0L51.253 22.4518C58.8916 22.4518 66.2173 25.4862 71.6186 30.8875C77.0198 36.2888 80.0542 43.6145 80.0542 51.253C80.0542 58.8916 77.0198 66.2173 71.6186 71.6186C66.2173 77.0198 58.8916 80.0542 51.253 80.0542L51.253 102.506Z" fill="url(#paint0_linear_18_5)" fill-opacity="0.4"/>
</g>
<path d="M51 0L51 22" stroke="white" stroke-width="1.31418"/>
<path d="M51 103.003V80" stroke="white" stroke-width="1.31418"/>
<path d="M34.3398 56.8261C33.9163 55.7096 33.7046 54.3774 33.7046 52.8297C33.7046 51.2819 33.9163 49.9536 34.3398 48.8448C34.7711 47.736 35.3755 46.8697 36.1533 46.2459C36.9387 45.6222 37.8127 45.1679 38.7752 44.883C39.7377 44.5981 40.8158 44.4556 42.0093 44.4556H42.8179C44.0191 44.4556 45.0971 44.5981 46.052 44.883C47.0145 45.1679 47.8846 45.6222 48.6624 46.2459C49.4478 46.8697 50.0523 47.736 50.4758 48.8448C50.907 49.9536 51.1226 51.2819 51.1226 52.8297C51.1226 54.3774 50.907 55.7096 50.4758 56.8261C50.0523 57.935 49.4478 58.8012 48.6624 59.425C47.8846 60.041 47.0145 60.4915 46.052 60.7764C45.0971 61.0613 44.0191 61.2037 42.8179 61.2037H42.0093C40.8081 61.2037 39.7262 61.0613 38.7637 60.7764C37.8088 60.4915 36.9387 60.041 36.1533 59.425C35.3755 58.8012 34.7711 57.935 34.3398 56.8261ZM42.4136 47.7244C39.5106 47.7244 38.0591 49.43 38.0591 52.8412C38.0591 56.2448 39.5106 57.9465 42.4136 57.9465C45.3166 57.9465 46.7681 56.2448 46.7681 52.8412C46.7681 49.43 45.3166 47.7244 42.4136 47.7244ZM52.5317 60.0256V58.3392C52.5317 57.3613 52.732 56.5143 53.1324 55.7981C53.5405 55.082 54.0603 54.5199 54.6917 54.1118C55.3231 53.7037 56.0238 53.3533 56.7939 53.0607C57.5639 52.7681 58.3339 52.5332 59.1039 52.3561C59.8817 52.1713 60.5862 51.9865 61.2177 51.8017C61.8491 51.6092 62.365 51.3628 62.7654 51.0625C63.1658 50.7622 63.366 50.3964 63.366 49.9652C63.366 49.095 63.1427 48.506 62.6961 48.198C62.2495 47.8823 61.4949 47.7244 60.4322 47.7244H59.6122C58.126 47.7244 57.1481 48.198 56.6783 49.1451C56.3318 49.8689 55.8121 50.2308 55.119 50.2308H53.7445C53.6059 50.2308 53.4558 50.2039 53.2941 50.15C53.1324 50.0961 52.9668 49.9613 52.7974 49.7457C52.6357 49.5301 52.5548 49.2645 52.5548 48.9487C52.5548 48.0632 52.8898 47.2701 53.5597 46.5694C54.2374 45.8686 55.0767 45.3412 56.0777 44.987C57.0788 44.6327 58.1221 44.4556 59.2079 44.4556H60.7672C61.7913 44.4556 62.7 44.5442 63.4931 44.7213C64.2939 44.8907 65.0216 45.1756 65.6761 45.576C66.3306 45.9687 66.835 46.5347 67.1892 47.2739C67.5434 48.0132 67.7205 48.9102 67.7205 49.9652C67.7205 50.8661 67.5203 51.6592 67.1199 52.3446C66.7195 53.0299 66.2036 53.5766 65.5722 53.9847C64.9407 54.3851 64.2362 54.7317 63.4584 55.0243C62.6884 55.3169 61.9184 55.5594 61.1484 55.7519C60.3783 55.9367 59.6776 56.1177 59.0462 56.2948C58.4148 56.4642 57.895 56.6798 57.4869 56.9416C57.0865 57.1957 56.8863 57.496 56.8863 57.8426H66.4731C66.7888 57.8426 67.0506 57.9504 67.2585 58.166C67.4741 58.3816 67.5819 58.6395 67.5819 58.9399V60.0256C67.5819 60.3259 67.4703 60.5839 67.247 60.7995C67.0314 61.0074 66.7734 61.1113 66.4731 61.1113H53.6521C53.3518 61.1113 53.09 61.0074 52.8667 60.7995C52.6434 60.5839 52.5317 60.3259 52.5317 60.0256Z" fill="#2BBABB"/>
<path d="M34.3398 56.8261C33.9163 55.7096 33.7046 54.3774 33.7046 52.8297C33.7046 51.2819 33.9163 49.9536 34.3398 48.8448C34.7711 47.736 35.3755 46.8697 36.1533 46.2459C36.9387 45.6222 37.8127 45.1679 38.7752 44.883C39.7377 44.5981 40.8158 44.4556 42.0093 44.4556H42.8179C44.0191 44.4556 45.0971 44.5981 46.052 44.883C47.0145 45.1679 47.8846 45.6222 48.6624 46.2459C49.4478 46.8697 50.0523 47.736 50.4758 48.8448C50.907 49.9536 51.1226 51.2819 51.1226 52.8297C51.1226 54.3774 50.907 55.7096 50.4758 56.8261C50.0523 57.935 49.4478 58.8012 48.6624 59.425C47.8846 60.041 47.0145 60.4915 46.052 60.7764C45.0971 61.0613 44.0191 61.2037 42.8179 61.2037H42.0093C40.8081 61.2037 39.7262 61.0613 38.7637 60.7764C37.8088 60.4915 36.9387 60.041 36.1533 59.425C35.3755 58.8012 34.7711 57.935 34.3398 56.8261ZM42.4136 47.7244C39.5106 47.7244 38.0591 49.43 38.0591 52.8412C38.0591 56.2448 39.5106 57.9465 42.4136 57.9465C45.3166 57.9465 46.7681 56.2448 46.7681 52.8412C46.7681 49.43 45.3166 47.7244 42.4136 47.7244ZM52.5317 60.0256V58.3392C52.5317 57.3613 52.732 56.5143 53.1324 55.7981C53.5405 55.082 54.0603 54.5199 54.6917 54.1118C55.3231 53.7037 56.0238 53.3533 56.7939 53.0607C57.5639 52.7681 58.3339 52.5332 59.1039 52.3561C59.8817 52.1713 60.5862 51.9865 61.2177 51.8017C61.8491 51.6092 62.365 51.3628 62.7654 51.0625C63.1658 50.7622 63.366 50.3964 63.366 49.9652C63.366 49.095 63.1427 48.506 62.6961 48.198C62.2495 47.8823 61.4949 47.7244 60.4322 47.7244H59.6122C58.126 47.7244 57.1481 48.198 56.6783 49.1451C56.3318 49.8689 55.8121 50.2308 55.119 50.2308H53.7445C53.6059 50.2308 53.4558 50.2039 53.2941 50.15C53.1324 50.0961 52.9668 49.9613 52.7974 49.7457C52.6357 49.5301 52.5548 49.2645 52.5548 48.9487C52.5548 48.0632 52.8898 47.2701 53.5597 46.5694C54.2374 45.8686 55.0767 45.3412 56.0777 44.987C57.0788 44.6327 58.1221 44.4556 59.2079 44.4556H60.7672C61.7913 44.4556 62.7 44.5442 63.4931 44.7213C64.2939 44.8907 65.0216 45.1756 65.6761 45.576C66.3306 45.9687 66.835 46.5347 67.1892 47.2739C67.5434 48.0132 67.7205 48.9102 67.7205 49.9652C67.7205 50.8661 67.5203 51.6592 67.1199 52.3446C66.7195 53.0299 66.2036 53.5766 65.5722 53.9847C64.9407 54.3851 64.2362 54.7317 63.4584 55.0243C62.6884 55.3169 61.9184 55.5594 61.1484 55.7519C60.3783 55.9367 59.6776 56.1177 59.0462 56.2948C58.4148 56.4642 57.895 56.6798 57.4869 56.9416C57.0865 57.1957 56.8863 57.496 56.8863 57.8426H66.4731C66.7888 57.8426 67.0506 57.9504 67.2585 58.166C67.4741 58.3816 67.5819 58.6395 67.5819 58.9399V60.0256C67.5819 60.3259 67.4703 60.5839 67.247 60.7995C67.0314 61.0074 66.7734 61.1113 66.4731 61.1113H53.6521C53.3518 61.1113 53.09 61.0074 52.8667 60.7995C52.6434 60.5839 52.5317 60.3259 52.5317 60.0256Z" fill="url(#paint1_linear_18_5)" fill-opacity="0.4"/>
<defs>
<filter id="filter0_d_18_5" x="45.9963" y="0" width="61.7665" height="113.02" filterUnits="userSpaceOnUse" color-interpolation-filters="sRGB">
<feFlood flood-opacity="0" result="BackgroundImageFix"/>
<feColorMatrix in="SourceAlpha" type="matrix" values="0 0 0 0 0 0 0 0 0 0 0 0 0 0 0 0 0 0 127 0" result="hardAlpha"/>
<feOffset dy="5.25672"/>
<feGaussianBlur stdDeviation="2.62836"/>
<feComposite in2="hardAlpha" operator="out"/>
<feColorMatrix type="matrix" values="0 0 0 0 0.28342 0 0 0 0 0.28342 0 0 0 0 0.28342 0 0 0 0.25 0"/>
<feBlend mode="normal" in2="BackgroundImageFix" result="effect1_dropShadow_18_5"/>
<feBlend mode="normal" in="SourceGraphic" in2="effect1_dropShadow_18_5" result="shape"/>
</filter>
<linearGradient id="paint0_linear_18_5" x1="51.253" y1="0" x2="51.253" y2="102.506" gradientUnits="userSpaceOnUse">
<stop stop-color="white"/>
<stop offset="1" stop-color="white" stop-opacity="0"/>
</linearGradient>
<linearGradient id="paint1_linear_18_5" x1="51" y1="38.1113" x2="51" y2="66.1113" gradientUnits="userSpaceOnUse">
<stop stop-color="white"/>
<stop offset="1" stop-color="white" stop-opacity="0"/>
</linearGradient>
</defs>
</svg>
